<svg width="13" height="19" viewBox="0 0 13 19" fill="none" xmlns="http://www.w3.org/2000/svg">
<path d="M12.3125 15.6562C12.0625 16 11.7656 16.3438 11.4219 16.6875C11.1198 16.9792 10.75 17.2865 10.3125 17.6094C9.88542 17.9323 9.38021 18.2188 8.79687 18.4688C7.19271 16.9792 5.84896 15.7812 4.76562 14.875C3.69271 13.9583 2.82812 13.2552 2.17187 12.7656C1.40104 12.1927 0.791667 11.7917 0.34375 11.5625C0.479167 11.2812 0.645833 10.9688 0.84375 10.625C1.02083 10.3229 1.23437 9.96875 1.48437 9.5625C1.74479 9.15625 2.04687 8.70312 2.39062 8.20312C2.93229 8.10938 3.48437 7.93229 4.04687 7.67188C4.61979 7.40104 5.1875 7.07812 5.75 6.70312C6.32292 6.32812 6.88021 5.91667 7.42187 5.46875C7.96354 5.02083 8.47917 4.57292 8.96875 4.125C10.1042 3.07292 11.2187 1.90104 12.3125 0.609375C11.9896 1.32812 11.5937 2.09375 11.125 2.90625C10.6667 3.71875 10.1198 4.53125 9.48437 5.34375C8.84896 6.14583 8.11979 6.91146 7.29687 7.64062C6.48437 8.36979 5.5625 9.00521 4.53125 9.54688C4.83333 9.77604 5.19792 10.0573 5.625 10.3906C6.0625 10.7135 6.52604 11.0625 7.01562 11.4375C7.51562 11.8125 8.02604 12.2031 8.54687 12.6094C9.06771 13.0052 9.5625 13.3906 10.0312 13.7656C10.5104 14.1406 10.9479 14.4948 11.3437 14.8281C11.7396 15.151 12.0625 15.4271 12.3125 15.6562Z" fill="#E6B36A"/>
</svg>
