<svg width="13" height="19" viewBox="0 0 13 19" fill="none" xmlns="http://www.w3.org/2000/svg">
<path d="M12.9219 7.53125C12.776 7.8125 12.6042 8.125 12.4062 8.46875C12.2292 8.77083 12.0156 9.125 11.7656 9.53125C11.5156 9.92708 11.2188 10.3698 10.875 10.8594C10.3333 10.9531 9.77604 11.1354 9.20312 11.4062C8.63021 11.6771 8.0625 12 7.5 12.375C6.9375 12.75 6.38021 13.1615 5.82812 13.6094C5.28646 14.0573 4.77604 14.5052 4.29688 14.9531C3.16146 16.0156 2.04688 17.1875 0.953125 18.4688C1.27604 17.7604 1.66667 17 2.125 16.1875C2.59375 15.3646 3.14062 14.5521 3.76562 13.75C4.40104 12.9375 5.13021 12.1667 5.95312 11.4375C6.77604 10.7083 7.70312 10.0781 8.73438 9.54688C8.43229 9.31771 8.0625 9.04167 7.625 8.71875C7.19792 8.38542 6.73438 8.03125 6.23438 7.65625C5.74479 7.27083 5.23958 6.88021 4.71875 6.48438C4.19792 6.07812 3.69792 5.6875 3.21875 5.3125C2.75 4.9375 2.31771 4.58854 1.92188 4.26562C1.52604 3.94271 1.20312 3.66667 0.953125 3.4375C1.20312 3.09375 1.5 2.75 1.84375 2.40625C2.14583 2.11458 2.51042 1.80729 2.9375 1.48438C3.36458 1.16146 3.875 0.869792 4.46875 0.609375C6.07292 2.10938 7.41146 3.3125 8.48438 4.21875C9.56771 5.125 10.4375 5.82292 11.0938 6.3125C11.8646 6.88542 12.474 7.29167 12.9219 7.53125Z" fill="white"/>
</svg>
