<svg width="90" height="81" viewBox="0 0 90 81" fill="none" xmlns="http://www.w3.org/2000/svg">
<path d="M6.80422 68.9182L10.7733 75.774C11.5981 77.2172 12.7836 78.3513 14.1754 79.176C18.1618 74.1158 20.9368 70.2326 22.5002 67.5264C24.0869 64.7801 26.0371 60.4846 28.3508 54.6397C22.1155 53.819 17.3904 53.4087 14.1754 53.4087C11.0902 53.4087 6.36507 53.819 0 54.6397C0 56.2377 0.412379 57.8356 1.23713 59.2789L6.80422 68.9182Z" fill="#0066DA"/>
<path d="M75.8255 79.176C77.2173 78.3513 78.4029 77.2172 79.2276 75.774L80.8771 72.9389L88.7638 59.2789C89.5885 57.8356 90.0009 56.2377 90.0009 54.6397C83.599 53.819 78.8824 53.4087 75.8513 53.4087C72.5937 53.4087 67.8772 53.819 61.7017 54.6397C63.9881 60.5166 65.9125 64.8122 67.4749 67.5264C69.0511 70.2647 71.8347 74.1478 75.8255 79.176Z" fill="#EA4335"/>
<path d="M45.0007 25.7735C49.6131 20.2027 52.7919 15.9071 54.5368 12.8867C55.9419 10.4546 57.4883 6.57143 59.176 1.23713C57.7842 0.412368 56.1863 0 54.5368 0H35.4645C33.8149 0 32.217 0.463917 30.8252 1.23713C32.9719 7.35504 34.7935 11.7091 36.2899 14.2992C37.9436 17.1616 40.8472 20.9863 45.0007 25.7735Z" fill="#00832D"/>
<path d="M61.65 54.6397H28.3506L14.1753 79.176C15.5671 80.0008 17.165 80.4131 18.8146 80.4131H71.1861C72.8357 80.4131 74.4336 79.9492 75.8254 79.176L61.65 54.6397Z" fill="#2684FC"/>
<path d="M45.0004 25.7735L30.8251 1.23713C29.4333 2.06187 28.2477 3.19586 27.4229 4.63924L1.23713 50.0005C0.412379 51.4439 0 53.0418 0 54.6397H28.3508L45.0004 25.7735Z" fill="#00AC47"/>
<path d="M75.6709 27.3199L62.578 4.63924C61.7533 3.19586 60.5676 2.06187 59.1758 1.23713L45.0005 25.7735L61.6501 54.6397H89.9494C89.9494 53.0418 89.537 51.4439 88.7123 50.0005L75.6709 27.3199Z" fill="#FFBA00"/>
</svg>
