<svg width="175" height="128" viewBox="0 0 175 128" fill="none" xmlns="http://www.w3.org/2000/svg">
<g filter="url(#filter0_d_87_13035)">
<line x1="88.265" y1="0.423999" x2="56.265" y2="20.424" stroke="#ED5829"/>
<line x1="119.755" y1="18.4358" x2="87.7549" y2="0.43579" stroke="#ED5829"/>
<line x1="120.104" y1="18.4997" x2="89.9834" y2="17.4997" stroke="#ED5829"/>
<line x1="89.5009" y1="18.0294" x2="88.5009" y2="1.02936" stroke="#ED5829"/>
<line x1="110.578" y1="50.2684" x2="89.5782" y2="17.2684" stroke="#ED5829"/>
<line x1="111" y1="50.5" x2="71" y2="50.5" stroke="#ED5829"/>
<path d="M91.1191 78.7847L57.1424 59.9999" stroke="#ED5829"/>
<line x1="70.5667" y1="50.7505" x2="89.5667" y2="17.7505" stroke="#ED5829"/>
<line x1="70.5497" y1="50.2174" x2="56.5498" y2="21.2174" stroke="#ED5829"/>
<line x1="56.5" y1="60" x2="56.5" y2="20" stroke="#ED5829"/>
<line x1="90.7428" y1="78.5713" x2="120.743" y2="60.5713" stroke="#ED5829"/>
<line x1="56.7296" y1="59.5794" x2="70.7296" y2="50.5794" stroke="#ED5829"/>
<line x1="90.5931" y1="78.2906" x2="70.5931" y2="50.2906" stroke="#ED5829"/>
<line x1="90.5931" y1="78.7094" x2="110.593" y2="50.7094" stroke="#ED5829"/>
<line x1="120.646" y1="60.3536" x2="110.646" y2="50.3536" stroke="#ED5829"/>
<line x1="120.5" y1="61.0119" x2="119.5" y2="19.0119" stroke="#ED5829"/>
<line x1="110.697" y1="50.9223" x2="119.518" y2="18.8673" stroke="#ED5829"/>
<line x1="90.0478" y1="17.4977" x2="56.0478" y2="20.7597" stroke="#ED5829"/>
<path d="M80.592 48V46.912L85.152 42.512C85.5573 42.128 85.856 41.792 86.048 41.504C86.2507 41.2053 86.384 40.9333 86.448 40.688C86.5227 40.432 86.56 40.1867 86.56 39.952C86.56 39.376 86.3573 38.9227 85.952 38.592C85.5467 38.2613 84.9547 38.096 84.176 38.096C83.5787 38.096 83.04 38.1973 82.56 38.4C82.08 38.592 81.664 38.896 81.312 39.312L80.224 38.368C80.6507 37.824 81.2213 37.408 81.936 37.12C82.6613 36.8213 83.456 36.672 84.32 36.672C85.0987 36.672 85.776 36.8 86.352 37.056C86.928 37.3013 87.3707 37.6587 87.68 38.128C88 38.5973 88.16 39.152 88.16 39.792C88.16 40.1547 88.112 40.512 88.016 40.864C87.92 41.216 87.7387 41.5893 87.472 41.984C87.2053 42.3787 86.8213 42.8213 86.32 43.312L82.256 47.232L81.872 46.608H88.64V48H80.592ZM94.5159 48.128C93.6412 48.128 92.8572 47.904 92.1639 47.456C91.4812 47.008 90.9372 46.3573 90.5319 45.504C90.1372 44.6507 89.9399 43.616 89.9399 42.4C89.9399 41.184 90.1372 40.1493 90.5319 39.296C90.9372 38.4427 91.4812 37.792 92.1639 37.344C92.8572 36.896 93.6412 36.672 94.5159 36.672C95.3799 36.672 96.1585 36.896 96.8519 37.344C97.5452 37.792 98.0892 38.4427 98.4839 39.296C98.8785 40.1493 99.0759 41.184 99.0759 42.4C99.0759 43.616 98.8785 44.6507 98.4839 45.504C98.0892 46.3573 97.5452 47.008 96.8519 47.456C96.1585 47.904 95.3799 48.128 94.5159 48.128ZM94.5159 46.704C95.1025 46.704 95.6145 46.544 96.0519 46.224C96.4999 45.904 96.8465 45.424 97.0919 44.784C97.3479 44.144 97.4759 43.3493 97.4759 42.4C97.4759 41.4507 97.3479 40.656 97.0919 40.016C96.8465 39.376 96.4999 38.896 96.0519 38.576C95.6145 38.256 95.1025 38.096 94.5159 38.096C93.9292 38.096 93.4119 38.256 92.9639 38.576C92.5159 38.896 92.1639 39.376 91.9079 40.016C91.6625 40.656 91.5399 41.4507 91.5399 42.4C91.5399 43.3493 91.6625 44.144 91.9079 44.784C92.1639 45.424 92.5159 45.904 92.9639 46.224C93.4119 46.544 93.9292 46.704 94.5159 46.704Z" fill="black"/>
</g>
<g filter="url(#filter1_d_87_13035)">
<path d="M8.07812 86.5938V105.797H19.5938V109H4.875V86.5938H8.07812ZM37.2031 102.25H26.1875V105.922H37.2031V109H26.1875C25.7708 109 25.375 108.922 25 108.766C24.625 108.599 24.2969 108.38 24.0156 108.109C23.7448 107.828 23.526 107.5 23.3594 107.125C23.2031 106.75 23.125 106.349 23.125 105.922V95.4375C23.125 95.0104 23.2031 94.6094 23.3594 94.2344C23.526 93.8594 23.7448 93.5365 24.0156 93.2656C24.2969 92.9844 24.625 92.7656 25 92.6094C25.375 92.4427 25.7708 92.3594 26.1875 92.3594H34.125C34.5521 92.3594 34.9531 92.4427 35.3281 92.6094C35.7031 92.7656 36.026 92.9844 36.2969 93.2656C36.5781 93.5365 36.7969 93.8594 36.9531 94.2344C37.1198 94.6094 37.2031 95.0104 37.2031 95.4375V102.25ZM26.1875 95.4375V99.1719H34.125V95.4375H26.1875ZM41.375 92.3594H45.4375V87.2344H48.5156V92.3594H53.9844V95.4375H48.5156V105.922H53.9844V109H48.5156C48.099 109 47.7031 108.922 47.3281 108.766C46.9531 108.599 46.625 108.38 46.3438 108.109C46.0625 107.828 45.8385 107.5 45.6719 107.125C45.5156 106.75 45.4375 106.349 45.4375 105.922V95.4375H41.375V92.3594ZM61.3906 96.0469H59.125L61.4219 91.2656H59.125V86.5938H63.7969V91.2656L61.3906 96.0469ZM78.3281 105.922V102.062H71.0312C70.6042 102.062 70.2031 101.984 69.8281 101.828C69.4531 101.661 69.125 101.443 68.8438 101.172C68.5729 100.891 68.3542 100.562 68.1875 100.188C68.0312 99.8125 67.9531 99.4115 67.9531 98.9844V95.4375C67.9531 95.0104 68.0312 94.6094 68.1875 94.2344C68.3542 93.8594 68.5729 93.5365 68.8438 93.2656C69.125 92.9844 69.4531 92.7656 69.8281 92.6094C70.2031 92.4427 70.6042 92.3594 71.0312 92.3594H80.7656V95.4375H71.0312V98.9844H78.3281C78.7552 98.9844 79.151 99.0677 79.5156 99.2344C79.8906 99.3906 80.2188 99.6094 80.5 99.8906C80.7812 100.161 81 100.484 81.1562 100.859C81.3229 101.234 81.4062 101.635 81.4062 102.062V105.922C81.4062 106.349 81.3229 106.75 81.1562 107.125C81 107.5 80.7812 107.828 80.5 108.109C80.2188 108.38 79.8906 108.599 79.5156 108.766C79.151 108.922 78.7552 109 78.3281 109H67.9531V105.922H78.3281ZM113.828 94.5938C113.828 97.7188 112.495 99.5 109.828 99.9375L114.047 109H110.5L106.344 100.047H99.3281V109H96.125V86.5938H108.391C112.016 86.5938 113.828 88.4115 113.828 92.0469V94.5938ZM99.3281 96.8438H108.219C109.073 96.8438 109.688 96.6562 110.062 96.2812C110.438 95.9062 110.625 95.2917 110.625 94.4375V92.2031C110.625 91.349 110.438 90.7344 110.062 90.3594C109.688 89.9844 109.073 89.7969 108.219 89.7969H99.3281V96.8438ZM133.266 105.922C133.266 106.349 133.182 106.75 133.016 107.125C132.859 107.5 132.641 107.828 132.359 108.109C132.089 108.38 131.766 108.599 131.391 108.766C131.026 108.922 130.63 109 130.203 109H121.938C121.521 109 121.125 108.922 120.75 108.766C120.375 108.599 120.047 108.38 119.766 108.109C119.495 107.828 119.276 107.5 119.109 107.125C118.953 106.75 118.875 106.349 118.875 105.922V95.4375C118.875 95.0104 118.953 94.6094 119.109 94.2344C119.276 93.8594 119.495 93.5365 119.766 93.2656C120.047 92.9844 120.375 92.7656 120.75 92.6094C121.125 92.4427 121.521 92.3594 121.938 92.3594H130.203C130.63 92.3594 131.026 92.4427 131.391 92.6094C131.766 92.7656 132.089 92.9844 132.359 93.2656C132.641 93.5365 132.859 93.8594 133.016 94.2344C133.182 94.6094 133.266 95.0104 133.266 95.4375V105.922ZM121.938 95.4375V105.922H130.203V95.4375H121.938ZM141.469 85.9531V109H138.406V85.9531H141.469ZM160.672 102.25H149.656V105.922H160.672V109H149.656C149.24 109 148.844 108.922 148.469 108.766C148.094 108.599 147.766 108.38 147.484 108.109C147.214 107.828 146.995 107.5 146.828 107.125C146.672 106.75 146.594 106.349 146.594 105.922V95.4375C146.594 95.0104 146.672 94.6094 146.828 94.2344C146.995 93.8594 147.214 93.5365 147.484 93.2656C147.766 92.9844 148.094 92.7656 148.469 92.6094C148.844 92.4427 149.24 92.3594 149.656 92.3594H157.594C158.021 92.3594 158.422 92.4427 158.797 92.6094C159.172 92.7656 159.495 92.9844 159.766 93.2656C160.047 93.5365 160.266 93.8594 160.422 94.2344C160.589 94.6094 160.672 95.0104 160.672 95.4375V102.25ZM149.656 95.4375V99.1719H157.594V95.4375H149.656ZM166.938 100.688L165.656 86.5938H170L168.719 100.688H166.938ZM165.484 104.328H170.156V109H165.484V104.328Z" fill="black"/>
</g>
<defs>
<filter id="filter0_d_87_13035" x="52" y="0" width="73" height="87.2222" filterUnits="userSpaceOnUse" color-interpolation-filters="sRGB">
<feFlood flood-opacity="0" result="BackgroundImageFix"/>
<feColorMatrix in="SourceAlpha" type="matrix" values="0 0 0 0 0 0 0 0 0 0 0 0 0 0 0 0 0 0 127 0" result="hardAlpha"/>
<feOffset dy="4"/>
<feGaussianBlur stdDeviation="2"/>
<feComposite in2="hardAlpha" operator="out"/>
<feColorMatrix type="matrix" values="0 0 0 0 0 0 0 0 0 0 0 0 0 0 0 0 0 0 0.25 0"/>
<feBlend mode="normal" in2="BackgroundImageFix" result="effect1_dropShadow_87_13035"/>
<feBlend mode="normal" in="SourceGraphic" in2="effect1_dropShadow_87_13035" result="shape"/>
</filter>
<filter id="filter1_d_87_13035" x="0.875" y="85.9531" width="173.281" height="31.0469" filterUnits="userSpaceOnUse" color-interpolation-filters="sRGB">
<feFlood flood-opacity="0" result="BackgroundImageFix"/>
<feColorMatrix in="SourceAlpha" type="matrix" values="0 0 0 0 0 0 0 0 0 0 0 0 0 0 0 0 0 0 127 0" result="hardAlpha"/>
<feOffset dy="4"/>
<feGaussianBlur stdDeviation="2"/>
<feComposite in2="hardAlpha" operator="out"/>
<feColorMatrix type="matrix" values="0 0 0 0 0 0 0 0 0 0 0 0 0 0 0 0 0 0 0.25 0"/>
<feBlend mode="normal" in2="BackgroundImageFix" result="effect1_dropShadow_87_13035"/>
<feBlend mode="normal" in="SourceGraphic" in2="effect1_dropShadow_87_13035" result="shape"/>
</filter>
</defs>
</svg>
